<svg xmlns="http://www.w3.org/2000/svg" width="841.9" height="595.3" viewBox="0 0 841.9 595.3"><g fill="#eb3425"><path d="M118.5 512.9h59.2v-14.8h-44.4v-22.2h36.9v-14.7h-36.9v-22.1h44.4v-14.9h-59.2M263.8 512.9H323v-14.8h-44.3v-22.2h36.9v-14.7h-36.9v-22.1H323v-14.9h-59.2M397.5 487.3l-44.2-63.1h-14.9v88.7h14.8v-63.1l44.1 63.1h15v-88.7h-14.8M424.9 437.8h18.6v75.1h14.7v-75.1h18.6v-13.6h-51.9M526.9 464.3c-6.3-2.9-12.6-2.9-13.2-2.9-6.6 0-12.9-3.9-12.9-11.3 0-8.2 6-12.3 12.9-12.3 6.7 0 12.4 3.3 12.7 10.7h14.7c-.3-15.1-12.1-25.5-27.4-25.5-14.3 0-27.8 10.2-27.8 27.1 0 10.5 5.2 18.4 14.4 22.7 6.5 2.9 12.6 2.9 13.4 2.9 5.9.3 12.9 4.9 12.9 12.4 0 7-6 11.3-12.9 11.3-6.6 0-12.7-3.7-12.9-11H486c.3 16.6 12.5 25.5 27.8 25.9 14.3 0 27.7-9.2 27.7-26.1-.2-10.6-5.3-19.6-14.6-23.9zM559 497.7c-4.3 0-7.9 3.7-7.9 8.1 0 4.3 3.5 7.9 7.9 7.9 4.6 0 8.1-3.5 8.1-7.9s-3.5-8.1-8.1-8.1zM639.7 450.1c0-25.8-29.6-25.8-29.6-25.8h-29.5V513h14.8v-37h12l17 37h16.3l-18.1-39.3c8-2.9 17.1-9.3 17.1-23.6zm-29.6 11.1h-14.7V439h14.7s14.8 0 14.8 11c0 11.2-14.8 11.2-14.8 11.2zM708.2 484.5c0 9.9-9.2 14.8-18.5 14.8-9.4 0-17.6-4.5-18.4-14.8v-60.3h-14.8v60.3c0 18.3 15 29.7 33.2 29.7 18.9 0 33.3-10.8 33.3-29.7v-60.3h-14.8v60.3zM218.3 476.6l-19.4-52.4h-16l34.5 88.7h1.8l34.6-88.7h-16M403.3 304.4c0-36.7-30-66.8-66.8-66.8-36.7 0-66.8 30-66.8 66.8 0 36.7 30.1 66.8 66.8 66.8 36.7-.1 66.8-30.1 66.8-66.8zm-66.8 37c-20.5 0-37-16.5-37-37s16.4-37 37-37c20.5 0 37 16.4 37 37 0 20.5-16.4 37-37 37zM500.4 237.6c-36.7 0-66.8 30-66.8 66.8 0 36.7 30.1 66.8 66.8 66.8 36.7 0 66.7-30 66.7-66.8 0-36.7-30-66.8-66.7-66.8zm0 103.8c-20.6 0-37-16.5-37-37s16.4-37 37-37c20.5 0 37 16.4 37 37 0 20.5-16.5 37-37 37zM603.1 237.6v133.5h30.1v-74.9h74.7v-29.8h-73.7v-28.8M148.5 296.2h17.2l46.7 75h35.2l-48.8-78.1c17.5-4.9 39.5-17.4 39.5-49.3 0-2.2-.3-4.2-.5-6.2h-30.6c4.1 12.9-4 28.8-25.2 28.8h-63.7v104.8h30v-75zM421.3 134.3v-.1L240 168.8v-32.1h-30v37.8L118.8 192v29.9l302.5-58.2 302.1 58.2V192M246.4 70.1c3.5.1 6.5-2.7 6.6-6.2.1-3.5-2.6-6.5-6.2-6.6-3.5-.1-6.4 2.7-6.6 6.2-.1 3.5 2.7 6.5 6.2 6.6zM206.8 119.4c-.1 3.5 2.6 6.4 6.1 6.6 3.5.1 6.5-2.6 6.6-6.1.1-3.5-2.6-6.5-6.2-6.6-3.4-.1-6.4 2.6-6.5 6.1zM202.6 68.6c3.5.1 6.5-2.7 6.6-6.2.1-3.5-2.6-6.5-6.1-6.6-3.5-.1-6.5 2.6-6.6 6.2-.2 3.5 2.6 6.5 6.1 6.6zM180.6 85.3c3.5.1 6.5-2.6 6.6-6.1.1-3.5-2.6-6.5-6.2-6.6-3.5-.1-6.5 2.6-6.6 6.2-.1 3.4 2.7 6.4 6.2 6.5zM227.9 126.5c-.1 2.1 1.6 3.9 3.7 4 2.1.1 3.9-1.6 4-3.8.1-2.2-1.6-3.9-3.7-4-2.2 0-3.9 1.7-4 3.8zM221.8 51.3c2.1.1 3.9-1.6 4-3.7.1-2.2-1.6-4-3.8-4-2.2-.1-3.9 1.6-4 3.8 0 2.1 1.7 3.9 3.8 3.9zM195.2 96.7c2.2.1 3.9-1.6 4-3.7.1-2.2-1.6-3.9-3.8-4-2.1-.1-3.9 1.6-4 3.7 0 2.1 1.7 3.9 3.8 4zM165.3 102.1c27.3-4.7 38.6 28.7 38.6 28.7-5.6-32.9-28-44.8-41-42.6-12 2-8.3 15.7 2.4 13.9zM248.3 134.9s1.5-43.6 35.6-47.8c13.4-1.6 12.9-19.2-2.1-17.3-16.2 2-38.5 24.1-33.5 65.1zM205.9 111.3l18.3-8.8 17.6 10.1-2.7-20.2 15-13.7-20-3.6-8.4-18.5-9.6 17.9-20.2 2.3L210 91.4"/></g></svg>